<svg id="Layer_1" data-name="Layer 1" xmlns="http://www.w3.org/2000/svg" viewBox="0 0 2402.86713 2774.5911"><defs><style>.cls-1{fill:#333;stroke:#333;stroke-width:2.83023px;}.cls-1,.cls-2,.cls-3,.cls-4,.cls-5,.cls-6{stroke-miterlimit:10;}.cls-2,.cls-3,.cls-4,.cls-5,.cls-6{fill:none;}.cls-2,.cls-3{stroke:#ccc;}.cls-2,.cls-5,.cls-6{stroke-linecap:round;}.cls-2,.cls-4,.cls-5{stroke-width:30.75986px;}.cls-3{stroke-width:24.96417px;}.cls-4,.cls-5{stroke:#65c8d0;}.cls-6{stroke:#e6e6e6;stroke-width:20px;}</style></defs><polygon class="cls-1" points="2401.452 2080.127 2401.452 694.465 1201.433 1.634 1.415 694.465 1.415 2080.127 1201.433 2772.957 2401.452 2080.127"/><line class="cls-2" x1="1047.17394" y1="913.27909" x2="1047.17394" y2="1097.83829"/><rect class="cls-3" x="1124.0736" y="910.2031" width="153.79932" height="189.94208" rx="69.89539"/><path class="cls-4" d="M1047.17383,390.3615h153.49084c127.58179,0,231.00733,103.42551,231.00733,231.00733h0v.00049c0,127.2409-103.14917,230.39-230.39,230.39H1047.17383V390.3615Z" transform="translate(0.00012 0.00004)"/><path class="cls-4" d="M1047.17384,851.75933h-77.245a153.454,153.454,0,0,0-153.454,153.454v.00031a154.14428,154.14428,0,0,0,154.14429,154.14422h76.55469" transform="translate(0.00012 0.00004)"/><path class="cls-5" d="M1047.17384,1774.55511h-77.245a152.88168,152.88168,0,0,0-64.25421,14.05933" transform="translate(0.00012 0.00004)"/><path class="cls-5" d="M905.67372,376.05255a153.56279,153.56279,0,0,0,64.94543,14.30889h76.55469" transform="translate(0.00012 0.00004)"/><line class="cls-4" x1="1418.46081" y1="544.1608" x2="1047.17394" y2="544.1608"/><line class="cls-4" x1="1418.63" y1="697.96012" x2="1047.17394" y2="697.96012"/><path class="cls-4" d="M1047.17383,1159.3579h228.781c170.94117,0,309.51648,138.5752,309.51648,309.51648h0v.00061c0,168.82239-136.85766,305.68006-305.68,305.68006H1047.17383V1159.3579Z" transform="translate(0.00012 0.00004)"/><line class="cls-4" x1="1542.60754" y1="1311.6193" x2="1047.17394" y2="1311.6193"/><line class="cls-4" x1="1585.45605" y1="1466.95658" x2="1047.17394" y2="1466.95658"/><line class="cls-4" x1="1545.12988" y1="1620.75577" x2="1047.17394" y2="1620.75577"/><line class="cls-5" x1="1047.17394" y1="1912.97452" x2="1047.17394" y2="1769.94107"/><line class="cls-5" x1="1047.17394" y1="251.94217" x2="1047.17394" y2="390.36155"/><path class="cls-6" d="M660.75311,2103.66747H728.488a67.27792,67.27792,0,0,1,67.27789,67.27784v.00024a67.7347,67.7347,0,0,1-67.73468,67.73486H660.75305V2103.66747Z" transform="translate(0.00012 0.00004)"/><line class="cls-6" x1="661.09075" y1="2306.5242" x2="661.09075" y2="2229.56693"/><line class="cls-6" x1="796.10357" y1="2306.5242" x2="728.25964" y2="2238.68021"/><path class="cls-6" d="M863.60986,2171.51122h66.56342a68.44933,68.44933,0,0,1,68.4494,68.44922v.00049a66.56326,66.56326,0,0,1-66.56329,66.56323H863.60986V2171.51122Z" transform="translate(0.00012 0.00004)"/><path class="cls-6" d="M863.60986,2104.00488h65.32605a35.25843,35.25843,0,0,1,35.25849,35.25854h0a32.24782,32.24782,0,0,1-32.24787,32.2478H863.60986v-67.50634Z" transform="translate(0.00012 0.00004)"/><line class="cls-6" x1="1066.12914" y1="2104.00492" x2="1066.12914" y2="2306.5242"/><path class="cls-6" d="M1201.142,2104.00492h.00014a67.50633,67.50633,0,0,1,67.50633,67.50633v67.50662a67.50633,67.50633,0,0,1-67.50633,67.50633h-.00014a67.50635,67.50635,0,0,1-67.50635-67.50635v-67.50659a67.50635,67.50635,0,0,1,67.50635-67.50635Z"/><path class="cls-6" d="M1403.661,2104.00488h.00012a67.50636,67.50636,0,0,1,67.50635,67.50634h0v67.50635H1336.15466v-67.50635a67.50636,67.50636,0,0,1,67.50635-67.50634Z" transform="translate(0.00012 0.00004)"/><line class="cls-6" x1="1336.15478" y1="2306.5242" x2="1336.15478" y2="2226.19144"/><line class="cls-6" x1="1471.1676" y1="2306.5242" x2="1471.1676" y2="2230.24198"/><path class="cls-6" d="M1538.67383,2104.00488h67.50647a67.50636,67.50636,0,0,1,67.50635,67.50634h0v.00025a67.50637,67.50637,0,0,1-67.50635,67.50635h-67.50647V2104.00488Z" transform="translate(0.00012 0.00004)"/><line class="cls-6" x1="1538.67394" y1="2306.5242" x2="1538.67394" y2="2203.91434"/><line class="cls-6" x1="1741.19323" y1="2104.00492" x2="1741.19323" y2="2306.5242"/></svg>